HIERARCHY
ROOT Hips
{
	OFFSET 0.00000 0.00000 0.00000
	CHANNELS 6 Xposition Yposition Zposition Zrotation Yrotation Xrotation 
	JOINT LHipJoint
	{
		OFFSET 0 0 0
		CHANNELS 3 Zrotation Yrotation Xrotation
		JOINT LeftUpLeg
		{
			OFFSET 1.81424 -1.42316 1.18090
			CHANNELS 3 Zrotation Yrotation Xrotation
			JOINT LeftLeg
			{
				OFFSET 2.15837 -5.93008 0.00000
				CHANNELS 3 Zrotation Yrotation Xrotation
				JOINT LeftFoot
				{
					OFFSET 2.51759 -6.91701 0.00000
					CHANNELS 3 Zrotation Yrotation Xrotation
					JOINT LeftToeBase
					{
						OFFSET 0.18318 -0.50327 1.95113
						CHANNELS 3 Zrotation Yrotation Xrotation
						End Site
						{
							OFFSET 0.00000 -0.00000 1.01524
						}
					}
				}
			}
		}
	}
	JOINT RHipJoint
	{
		OFFSET 0 0 0
		CHANNELS 3 Zrotation Yrotation Xrotation
		JOINT RightUpLeg
		{
			OFFSET -1.43917 -1.42316 1.18090
			CHANNELS 3 Zrotation Yrotation Xrotation
			JOINT RightLeg
			{
				OFFSET -2.25237 -6.18833 0.00000
				CHANNELS 3 Zrotation Yrotation Xrotation
				JOINT RightFoot
				{
					OFFSET -2.46496 -6.77243 0.00000
					CHANNELS 3 Zrotation Yrotation Xrotation
					JOINT RightToeBase
					{
						OFFSET -0.26285 -0.72219 1.76148
						CHANNELS 3 Zrotation Yrotation Xrotation
						End Site
						{
							OFFSET -0.00000 -0.00000 0.95109
						}
					}
				}
			}
		}
	}
	JOINT LowerBack
	{
		OFFSET 0 0 0
		CHANNELS 3 Zrotation Yrotation Xrotation
		JOINT Spine
		{
			OFFSET -0.08725 1.93754 -0.28890
			CHANNELS 3 Zrotation Yrotation Xrotation
			JOINT Spine1
			{
				OFFSET 0.01195 1.94849 0.05967
				CHANNELS 3 Zrotation Yrotation Xrotation
				JOINT Neck
				{
					OFFSET 0 0 0
					CHANNELS 3 Zrotation Yrotation Xrotation
					JOINT Neck1
					{
						OFFSET 0.02762 1.60124 0.34160
						CHANNELS 3 Zrotation Yrotation Xrotation
						JOINT Head
						{
							OFFSET -0.04785 1.66713 -0.24070
							CHANNELS 3 Zrotation Yrotation Xrotation
							End Site
							{
								OFFSET -0.02188 1.68591 -0.11959
							}
						}
					}
				}
				JOINT LeftShoulder
				{
					OFFSET 0 0 0
					CHANNELS 3 Zrotation Yrotation Xrotation
					JOINT LeftArm
					{
						OFFSET 2.59610 1.78696 -0.28854
						CHANNELS 3 Zrotation Yrotation Xrotation
						JOINT LeftForeArm
						{
							OFFSET 5.17853 -0.00000 0.00000
							CHANNELS 3 Zrotation Yrotation Xrotation
							JOINT LeftHand
							{
								OFFSET 3.40399 -0.00000 -0.00000
								CHANNELS 3 Zrotation Yrotation Xrotation
								JOINT LeftFingerBase
								{
									OFFSET 0 0 0
									CHANNELS 3 Zrotation Yrotation Xrotation
									JOINT LeftHandIndex1
									{
										OFFSET 0.70896 -0.00000 -0.00000
										CHANNELS 3 Zrotation Yrotation Xrotation
										End Site
										{
											OFFSET 0.57159 -0.00000 -0.00000
										}
									}
								}
								JOINT LThumb
								{
									OFFSET 0 0 0
									CHANNELS 3 Zrotation Yrotation Xrotation
									End Site
									{
										OFFSET 0.58031 -0.00000 0.58031
									}
								}
							}
						}
					}
				}
				JOINT RightShoulder
				{
					OFFSET 0 0 0
					CHANNELS 3 Zrotation Yrotation Xrotation
					JOINT RightArm
					{
						OFFSET -2.87749 1.55486 -0.73085
						CHANNELS 3 Zrotation Yrotation Xrotation
						JOINT RightForeArm
						{
							OFFSET -5.42351 -0.00000 -0.00000
							CHANNELS 3 Zrotation Yrotation Xrotation
							JOINT RightHand
							{
								OFFSET -3.42066 -0.00000 -0.00000
								CHANNELS 3 Zrotation Yrotation Xrotation
								JOINT RightFingerBase
								{
									OFFSET 0 0 0
									CHANNELS 3 Zrotation Yrotation Xrotation
									JOINT RightHandIndex1
									{
										OFFSET -0.74361 -0.00000 -0.00000
										CHANNELS 3 Zrotation Yrotation Xrotation
										End Site
										{
											OFFSET -0.59952 -0.00000 -0.00000
										}
									}
								}
								JOINT RThumb
								{
									OFFSET 0 0 0
									CHANNELS 3 Zrotation Yrotation Xrotation
									End Site
									{
										OFFSET -0.60867 -0.00000 0.60867
									}
								}
							}
						}
					}
				}
			}
		}
	}
}
MOTION
Frames: 8
Frame Time: .0083333
7.3803 14.6240 -1.4681 8.9487 82.2301 27.9241 0.0000 0.0000 0.0000 -8.8393 6.9849 -56.3497 10.8341 17.8529 62.2416 1.4107 -11.5554 -21.5527 0.0000 -0.0354 -0.0972 0.0000 0.0000 0.0000 2.9837 9.8614 -58.5606 -12.2169 -18.4809 66.6748 -2.5095 5.8046 -28.7571 -0.5805 4.8788 -13.5633 -5.4132 1.2645 17.2328 0.3072 0.7746 1.9721 3.2199 0.5866 -7.6178 5.3930 3.0759 -16.2566 -6.7268 3.6585 4.1803 -2.6539 1.5423 4.0879 -0.0000 -0.0000 0.0000 -73.0770 -17.5851 30.9389 22.5874 -33.6345 -6.9084 -0.0000 0.0000 -21.2067 20.3443 -29.6941 -10.4080 -7.1250 0.0000 -0.0000 -6.1254 -1.1695 6.2849 -0.0000 -0.0000 0.0000 80.5815 7.3770 30.2469 -44.1171 50.3285 -21.5570 0.0000 -0.0000 -21.4563 -21.6177 29.9945 -11.2058 7.1250 -0.0000 -0.0000 5.4282 1.7293 5.6145
7.3819 14.6237 -1.4887 8.8294 82.2242 27.8065 0.0000 0.0000 0.0000 -8.8625 6.8488 -56.3519 10.8727 17.8722 62.3674 1.4294 -11.5450 -21.6851 0.0014 0.2432 0.6683 0.0000 0.0000 0.0000 2.9243 9.7743 -58.5803 -12.2018 -18.4747 66.6271 -2.4894 5.8424 -28.6314 -0.5742 4.8528 -13.4892 -5.3639 1.2229 17.2044 0.2745 0.7276 1.9623 3.1678 0.5617 -7.6072 5.4141 3.0518 -16.1069 -6.7406 3.6262 4.1126 -2.6656 1.5290 4.0423 -0.0000 -0.0000 0.0000 -72.8346 -16.9097 30.8570 22.9335 -34.0160 -7.1011 -0.0000 0.0000 -21.2036 20.5608 -29.8120 -10.5632 -7.1250 0.0000 -0.0000 -6.0149 -1.3319 6.1870 -0.0000 -0.0000 0.0000 80.5493 7.0006 30.4207 -45.1363 50.8351 -22.3444 0.0000 -0.0000 -21.4478 -21.5550 30.2165 -11.2439 7.1250 -0.0000 -0.0000 5.4944 1.9438 5.7035
7.3815 14.6239 -1.5040 7.7976 82.2451 26.7841 0.0000 0.0000 0.0000 -8.7201 6.7713 -56.3946 10.9103 17.8909 62.4900 1.4363 -11.5653 -21.7369 0.0078 0.5715 1.5706 0.0000 0.0000 0.0000 3.0309 9.7748 -58.5756 -12.1852 -18.4679 66.5747 -2.4782 5.8082 -28.5680 -0.5855 4.8994 -13.6220 -5.3144 1.2006 17.2483 0.2887 0.7058 1.9573 3.1599 0.5507 -7.6343 5.4517 3.0777 -16.2843 -6.7031 3.6466 4.2323 -2.6567 1.5375 4.1079 -0.0000 0.0000 0.0000 -72.4987 -16.2634 30.8525 23.3952 -34.5181 -7.3610 -0.0000 0.0000 -21.4410 20.7178 -29.8003 -10.6456 -7.1250 0.0000 -0.0000 -5.9226 -1.3507 6.0929 -0.0000 0.0000 0.0000 80.5690 6.6638 30.5719 -46.2802 51.3804 -23.2347 0.0000 -0.0000 -21.4409 -21.5266 30.1675 -11.2119 7.1250 -0.0000 -0.0000 5.5041 1.8879 5.7086
7.3803 14.6218 -1.5240 6.5573 82.1933 25.5223 0.0000 0.0000 0.0000 -8.5878 6.7849 -56.4198 10.9491 17.9101 62.6161 1.4489 -11.4178 -21.8054 0.0033 0.3734 1.0261 0.0000 0.0000 0.0000 3.1367 9.8127 -58.5365 -12.1683 -18.4609 66.5212 -2.4691 5.8626 -28.5063 -0.5931 4.9306 -13.7108 -5.2057 1.2095 17.3346 0.2746 0.7337 1.9820 3.0758 0.5611 -7.6561 5.4428 3.0702 -16.4330 -6.6004 3.6232 4.2313 -2.6241 1.5295 4.1267 0.0000 -0.0000 0.0000 -72.1344 -15.7636 30.9012 23.8068 -34.9593 -7.5956 -0.0000 0.0000 -21.7703 20.5898 -29.6087 -10.5150 -7.1250 0.0000 -0.0000 -5.9724 -1.1301 6.1221 0.0000 -0.0000 0.0000 80.5927 6.4528 30.6959 -47.2694 51.8331 -24.0101 0.0000 -0.0000 -21.4526 -21.6237 30.0306 -11.2210 7.1250 -0.0000 -0.0000 5.4296 1.7675 5.6195
7.3781 14.6187 -1.5445 5.5716 82.0457 24.5683 0.0000 0.0000 0.0000 -8.5429 6.8861 -56.5129 10.9822 17.9264 62.7239 1.4614 -11.2593 -21.8732 0.0000 0.0129 0.0355 0.0000 0.0000 0.0000 3.1457 9.9606 -58.5984 -12.1541 -18.4550 66.4765 -2.4590 5.8158 -28.4508 -0.6126 5.0093 -13.9351 -5.1489 1.2686 17.3707 0.2593 0.8178 1.9707 3.0066 0.6005 -7.6951 5.3324 3.0816 -16.4724 -6.5420 3.6557 4.2671 -2.5849 1.5459 4.1426 0.0000 -0.0000 0.0000 -71.8861 -15.2635 30.9410 24.1785 -35.3525 -7.8096 -0.0000 0.0000 -21.8699 20.5074 -29.3548 -10.3902 -7.1250 0.0000 -0.0000 -5.9885 -0.8549 6.1105 0.0000 -0.0000 0.0000 80.5171 6.1812 30.8132 -48.2368 52.2592 -24.7729 0.0000 -0.0000 -21.4137 -21.6827 30.1618 -11.2973 7.1250 -0.0000 -0.0000 5.4134 1.9139 5.6160
7.3796 14.6197 -1.5583 6.1835 81.8421 25.2866 0.0000 0.0000 0.0000 -8.7749 6.9738 -56.6582 11.0010 17.9356 62.7849 1.4727 -11.2186 -21.9481 0.0004 -0.1347 -0.3702 0.0000 0.0000 0.0000 2.9180 10.0612 -58.7801 -12.1464 -18.4518 66.4520 -2.4440 5.7348 -28.3699 -0.6451 5.1382 -14.3030 -5.4535 1.3708 17.3498 0.2568 0.8903 1.8910 3.1597 0.6474 -7.7815 5.4734 3.1583 -16.7536 -6.9121 3.7631 4.5365 -2.7114 1.5722 4.2883 0.0000 0.0000 0.0000 -71.7582 -14.7132 31.0270 24.5927 -35.7847 -8.0505 -0.0000 0.0000 -21.8938 20.5150 -29.1455 -10.3282 -7.1250 0.0000 -0.0000 -5.9582 -0.6425 6.0574 0.0000 0.0000 0.0000 80.3504 5.7917 30.8808 -49.3882 52.7457 -25.6864 0.0000 -0.0000 -21.3093 -21.5196 30.3707 -11.2746 7.1250 -0.0000 -0.0000 5.5357 2.0943 5.7609
7.3860 14.6199 -1.5724 6.9011 81.7107 26.0039 0.0000 0.0000 0.0000 -9.0122 7.0524 -56.6740 11.0210 17.9454 62.8498 1.4738 -11.3465 -21.9727 0.0001 0.0742 0.2040 0.0000 0.0000 0.0000 2.7433 9.9907 -58.7973 -12.1386 -18.4486 66.4275 -2.4349 5.8014 -28.3059 -0.6702 5.2351 -14.5803 -5.6998 1.4377 17.3235 0.2242 0.9298 1.8802 3.2553 0.6739 -7.7859 5.6427 3.2025 -16.6557 -7.1610 3.8099 4.3914 -2.8135 1.5877 4.2405 -0.0000 -0.0000 0.0000 -71.5761 -14.1495 31.1317 25.0703 -36.2757 -8.3314 -0.0000 0.0000 -22.0706 20.5123 -29.1389 -10.3246 -7.1250 0.0000 -0.0000 -5.9590 -0.6352 6.0574 -0.0000 -0.0000 0.0000 80.2925 5.4891 30.9192 -50.5714 53.2234 -26.6311 0.0000 -0.0000 -21.2144 -21.3701 30.3071 -11.1699 7.1250 -0.0000 -0.0000 5.6130 1.9988 5.8331
7.3928 14.6141 -1.5925 5.8401 81.6249 24.8306 0.0000 0.0000 0.0000 -8.9301 7.1730 -56.5786 11.0535 17.9612 62.9551 1.4785 -11.4304 -22.0169 0.0023 0.3087 0.8483 0.0000 0.0000 0.0000 2.8417 9.9937 -58.6477 -12.1258 -18.4433 66.3869 -2.4303 5.9047 -28.2657 -0.6610 5.1998 -14.4793 -5.5662 1.4684 17.3668 0.1942 0.9935 1.9292 3.1313 0.6988 -7.7600 5.4739 3.1601 -16.2675 -6.9154 3.7706 4.1415 -2.7161 1.5888 4.0907 -0.0000 -0.0000 0.0000 -71.4086 -13.4794 31.0375 25.5936 -36.8046 -8.6430 -0.0000 0.0000 -22.0468 20.5933 -29.3814 -10.4450 -7.1250 0.0000 -0.0000 -5.9419 -0.8986 6.0669 -0.0000 -0.0000 0.0000 80.3071 5.1858 31.1033 -51.7939 53.6939 -27.6134 0.0000 -0.0000 -21.3313 -21.4247 30.2345 -11.1768 7.1250 -0.0000 -0.0000 5.5718 1.9357 5.7839
